nColumns=19
nRows=45
DataType=double
version=3
OpenSimVersion=4.1
endheader
time	ground_force_calcn_r_vx	ground_force_calcn_r_vy	ground_force_calcn_r_vz	ground_force_calcn_r_px	ground_force_calcn_r_py	ground_force_calcn_r_pz	ground_force_calcn_r_mx	ground_force_calcn_r_my	ground_force_calcn_r_mz	ground_force_calcn_l_vx	ground_force_calcn_l_vy	ground_force_calcn_l_vz	ground_force_calcn_l_px	ground_force_calcn_l_py	ground_force_calcn_l_pz	ground_force_calcn_l_mx	ground_force_calcn_l_my	ground_force_calcn_l_mz
1.30833	0	0	0	0	0	0	0	0	0	0	0	0	0	0	0	0	0	0
1.31667	0	0	0	0	0	0	0	0	0	-10.8243	32.1881	-3.79399	1.21171	0	-0.352718	-0.247561	0.736172	-0.0867719
1.325	0	0	0	0	0	0	0	0	0	-26.5696	83.3856	-3.44595	1.22195	0	-0.355927	-0.0212785	0.0667799	-0.00275971
1.33333	0	0	0	0	0	0	0	0	0	-49.1025	171.161	0.401883	1.22382	0	-0.353264	0.225012	-0.784347	-0.00184163
1.34167	0	0	0	0	0	0	0	0	0	-67.4365	286.178	7.44016	1.21714	0	-0.349545	0.363873	-1.54416	-0.0401455
1.35	0	0	0	0	0	0	0	0	0	-71.7034	419.258	13.9931	1.1993	0	-0.347176	0.318633	-1.86308	-0.0621821
1.35833	0	0	0	0	0	0	0	0	0	-68.1942	574.187	15.6694	1.17462	0	-0.346783	0.169164	-1.42434	-0.0388698
1.36667	0	0	0	0	0	0	0	0	0	-70.8414	756.493	11.4005	1.15284	0	-0.346529	0.0136272	-0.145521	-0.00219303
1.375	0	0	0	0	0	0	0	0	0	-79.7805	959.138	3.41379	1.13557	0	-0.344717	-0.146362	1.7596	0.00626282
1.38333	0	0	0	0	0	0	0	0	0	-83.3032	1157.82	-6.10227	1.11837	0	-0.342132	-0.277467	3.85648	-0.0203255
1.39167	0	0	0	0	0	0	0	0	0	-76.4454	1321.25	-15.6269	1.10015	0	-0.34052	-0.324211	5.60352	-0.0662747
1.4	0	0	0	0	0	0	0	0	0	-70.1866	1431.4	-21.686	1.08399	0	-0.340569	-0.318978	6.5053	-0.0985564
1.40833	0	0	0	0	0	0	0	0	0	-76.272	1494.42	-19.183	1.07185	0	-0.341483	-0.321072	6.29087	-0.0807522
1.41667	0	0	0	0	0	0	0	0	0	-87.5074	1531.1	-6.67394	1.06128	0	-0.342012	-0.287239	5.02576	-0.0219069
1.425	0	0	0	0	0	0	0	0	0	-88.1601	1555.32	10.2686	1.04899	0	-0.34196	-0.175163	3.09023	0.0204025
1.43333	0	0	0	0	0	0	0	0	0	-72.9572	1566.97	23.3194	1.03481	0	-0.342034	-0.0480852	1.03277	0.0153695
1.44167	0	0	0	0	0	0	0	0	0	-49.5099	1561.89	28.6734	1.02057	0	-0.342465	0.0194769	-0.614437	-0.0112799
1.45	0	0	0	0	0	0	0	0	0	-26.0921	1539.88	28.5893	1.00723	0	-0.342581	0.0250906	-1.48078	-0.0274919
1.45833	0	0	0	0	0	0	0	0	0	-3.62356	1502.65	26.3083	0.994202	0	-0.341756	0.00344001	-1.42653	-0.0249757
1.46667	0	0	0	0	0	0	0	0	0	20.2235	1448.73	21.8157	0.980759	0	-0.340225	-0.00747386	-0.535399	-0.0080623
1.475	0	0	0	0	0	0	0	0	0	44.8653	1375.26	13.5348	0.966962	0	-0.338573	0.0304789	0.934275	0.00919479
1.48333	0	0	0	0	0	0	0	0	0	66.4755	1283	2.2869	0.953562	0	-0.336895	0.135719	2.61943	0.00466904
1.49167	0	0	0	0	0	0	0	0	0	82.6057	1177.08	-8.47866	0.940923	0	-0.334788	0.290642	4.14149	-0.0298315
1.5	0	0	0	0	0	0	0	0	0	94.7415	1063.29	-16.0534	0.928418	0	-0.331964	0.462896	5.19512	-0.0784352
1.50833	0	0	0	0	0	0	0	0	0	103.835	944.298	-20.602	0.915693	0	-0.328757	0.61653	5.60688	-0.122327
1.51667	0	0	0	0	0	0	0	0	0	109.004	821.007	-23.654	0.903102	0	-0.325903	0.710164	5.3489	-0.154107
1.525	0	0	0	0	0	0	0	0	0	109.454	696.996	-25.5381	0.890996	0	-0.323817	0.709061	4.51526	-0.16544
1.53333	0	0	0	0	0	0	0	0	0	106.072	579.297	-25.171	0.879072	0	-0.322125	0.601027	3.28244	-0.142625
1.54167	0	0	0	0	0	0	0	0	0	99.4757	473.188	-22.0645	0.866946	0	-0.320065	0.393389	1.87128	-0.0872569
1.55	0	0	0	0	0	0	0	0	0	89.0268	379.369	-17.5839	0.855411	0	-0.317673	0.118055	0.503068	-0.0233174
1.55833	0	0	0	0	0	0	0	0	0	75.3032	297.356	-13.7748	0.845792	0	-0.315933	-0.164059	-0.647834	0.0300104
1.56667	0	0	0	0	0	0	0	0	0	60.7148	227.477	-11.3617	0.838627	0	-0.315577	-0.394264	-1.47716	0.0737793
1.575	0	0	0	0	0	0	0	0	0	48.1023	169.885	-9.46517	0.832786	0	-0.315587	-0.550933	-1.94575	0.108408
1.58333	0	0	0	0	0	0	0	0	0	38.2533	123.414	-7.20142	0.82756	0	-0.31361	-0.641504	-2.06964	0.120767
1.59167	0	0	0	0	0	0	0	0	0	30.0597	86.1869	-4.902	0.825199	0	-0.308456	-0.667463	-1.91374	0.108847
1.6	0	0	0	0	0	0	0	0	0	23.1292	57.2834	-3.43719	0.827047	0	-0.300863	-0.632631	-1.56682	0.094014
1.60833	0	0	0	0	0	0	0	0	0	17.6121	36.2085	-2.82783	0.833163	0	-0.290734	-0.548943	-1.12857	0.0881391
1.61667	0	0	0	0	0	0	0	0	0	0	0	0	0	0	0	0	0	0
1.625	0	0	0	0	0	0	0	0	0	0	0	0	0	0	0	0	0	0
1.63333	0	0	0	0	0	0	0	0	0	0	0	0	0	0	0	0	0	0
1.64167	0	0	0	0	0	0	0	0	0	0	0	0	0	0	0	0	0	0
1.65	0	0	0	0	0	0	0	0	0	0	0	0	0	0	0	0	0	0
1.65833	0	0	0	0	0	0	0	0	0	0	0	0	0	0	0	0	0	0
1.66667	0	0	0	0	0	0	0	0	0	0	0	0	0	0	0	0	0	0
1.675	0	0	0	0	0	0	0	0	0	0	0	0	0	0	0	0	0	0
